<mxfile host="65bd71144e">
    <diagram id="-gAQvzJJY-6ehQlRBfQJ" name="Page-1">
        <mxGraphModel dx="-2183" dy="2101" grid="1" gridSize="10" guides="1" tooltips="1" connect="1" arrows="1" fold="1" page="1" pageScale="1" pageWidth="850" pageHeight="1100" math="0" shadow="0">
            <root>
                <mxCell id="0"/>
                <mxCell id="1" parent="0"/>
                <mxCell id="2" value="C0" style="whiteSpace=wrap;html=1;aspect=fixed;fillColor=#d5e8d4;strokeColor=#000000;strokeWidth=3;fontSize=50;fontStyle=1" parent="1" vertex="1">
                    <mxGeometry x="3685.5" y="-808.6899999999999" width="140" height="140" as="geometry"/>
                </mxCell>
                <mxCell id="3" value="" style="rounded=0;whiteSpace=wrap;html=1;fontSize=50;fontColor=#000000;strokeColor=#000000;strokeWidth=6;fillColor=#000000;" parent="1" vertex="1">
                    <mxGeometry x="3740.5" y="-669" width="30" height="11" as="geometry"/>
                </mxCell>
                <mxCell id="5" value="RAG" style="ellipse;whiteSpace=wrap;html=1;aspect=fixed;sketch=0;fillColor=#d5e8d4;strokeColor=#82b366;" parent="1" vertex="1">
                    <mxGeometry x="3696" y="-781" width="30" height="30" as="geometry"/>
                </mxCell>
                <mxCell id="6" value="" style="endArrow=none;dashed=1;html=1;dashPattern=1 3;strokeWidth=1;exitX=0.5;exitY=0;exitDx=0;exitDy=0;jumpSize=0;" parent="1" source="5" edge="1">
                    <mxGeometry width="50" height="50" relative="1" as="geometry">
                        <mxPoint x="3796" y="-730" as="sourcePoint"/>
                        <mxPoint x="3676" y="-820" as="targetPoint"/>
                    </mxGeometry>
                </mxCell>
                <mxCell id="7" value="" style="endArrow=none;dashed=1;html=1;dashPattern=1 3;strokeWidth=1;exitX=0.5;exitY=0;exitDx=0;exitDy=0;jumpSize=0;" parent="1" source="5" edge="1">
                    <mxGeometry width="50" height="50" relative="1" as="geometry">
                        <mxPoint x="3721" y="-771" as="sourcePoint"/>
                        <mxPoint x="3746" y="-820" as="targetPoint"/>
                    </mxGeometry>
                </mxCell>
                <mxCell id="8" value="&lt;br style=&quot;font-size: 17px&quot;&gt;LOOP:&lt;br style=&quot;font-size: 17px&quot;&gt;&#9;&lt;blockquote style=&quot;margin: 0px 0px 0px 40px ; border: none ; padding: 0px ; font-size: 17px&quot;&gt;&lt;font color=&quot;#0000ff&quot; style=&quot;font-size: 17px&quot;&gt;START_IDX: 0&lt;br style=&quot;font-size: 17px&quot;&gt;STATE: GENERATE&lt;br style=&quot;font-size: 17px&quot;&gt;X_MODIFY: +1&lt;br style=&quot;font-size: 17px&quot;&gt;X_COUNT: X&lt;/font&gt;&lt;/blockquote&gt;&lt;blockquote style=&quot;margin: 0px 0px 0px 40px ; border: none ; padding: 0px ; font-size: 17px&quot;&gt;&lt;font color=&quot;#0000ff&quot;&gt;Y_MODIFY: -X&lt;/font&gt;&lt;/blockquote&gt;&lt;blockquote style=&quot;margin: 0px 0px 0px 40px ; border: none ; padding: 0px ; font-size: 17px&quot;&gt;&lt;font color=&quot;#0000ff&quot;&gt;Y_COUNT: Y&lt;/font&gt;&lt;/blockquote&gt;&lt;font color=&quot;#0000ff&quot; style=&quot;font-size: 17px&quot;&gt;&lt;span style=&quot;font-size: 17px&quot;&gt;&#9;&lt;/span&gt;&lt;br style=&quot;font-size: 17px&quot;&gt;&lt;/font&gt;&lt;span style=&quot;font-size: 17px&quot;&gt;&#9;&lt;/span&gt;" style="text;html=1;strokeColor=default;fillColor=none;spacing=5;spacingTop=-20;whiteSpace=wrap;overflow=hidden;rounded=0;sketch=0;fontSize=17;" parent="1" vertex="1">
                    <mxGeometry x="3644.23" y="-990" width="222.54" height="160" as="geometry"/>
                </mxCell>
                <mxCell id="10" value="0" style="rounded=0;whiteSpace=wrap;html=1;fontSize=15;strokeWidth=2;fontStyle=1;fillColor=#d5e8d4;strokeColor=#000000;" parent="1" vertex="1">
                    <mxGeometry x="3969.466736293234" y="-965.402403100775" width="28.851060292745704" height="26.20155038759689" as="geometry"/>
                </mxCell>
                <mxCell id="11" style="edgeStyle=orthogonalEdgeStyle;curved=1;orthogonalLoop=1;jettySize=auto;html=1;entryX=1;entryY=0.5;entryDx=0;entryDy=0;fontSize=12;endSize=1;strokeWidth=2;" parent="1" target="12" edge="1">
                    <mxGeometry relative="1" as="geometry">
                        <mxPoint x="3998.3177965859804" y="-952.3457823715187" as="sourcePoint"/>
                        <mxPoint x="3998.3177965859804" y="-926.1262790697674" as="targetPoint"/>
                        <Array as="points">
                            <mxPoint x="4024.41" y="-952"/>
                            <mxPoint x="4024.41" y="-926"/>
                            <mxPoint x="3998.41" y="-926"/>
                        </Array>
                    </mxGeometry>
                </mxCell>
                <mxCell id="12" value="1" style="rounded=0;whiteSpace=wrap;html=1;fontSize=15;strokeWidth=2;fontStyle=1;fillColor=#D5E8D4;strokeColor=#000000;" parent="1" vertex="1">
                    <mxGeometry x="3969.466736293234" y="-939.2008527131782" width="28.851060292745704" height="26.20155038759689" as="geometry"/>
                </mxCell>
                <mxCell id="13" value="2" style="rounded=0;whiteSpace=wrap;html=1;fontSize=15;strokeWidth=2;fontStyle=1;fillColor=#d5e8d4;strokeColor=#000000;" parent="1" vertex="1">
                    <mxGeometry x="3969.466736293234" y="-912.9993023255813" width="28.851060292745704" height="26.20155038759689" as="geometry"/>
                </mxCell>
                <mxCell id="14" value="3" style="rounded=0;whiteSpace=wrap;html=1;fontSize=15;strokeWidth=2;fontStyle=1;fillColor=#D5E8D4;strokeColor=#000000;" parent="1" vertex="1">
                    <mxGeometry x="3969.466736293234" y="-886.7977519379845" width="28.851060292745704" height="26.20155038759689" as="geometry"/>
                </mxCell>
                <mxCell id="15" value="5" style="rounded=0;whiteSpace=wrap;html=1;fontSize=15;strokeWidth=2;fontStyle=1;fillColor=#d5e8d4;strokeColor=#000000;" parent="1" vertex="1">
                    <mxGeometry x="3969.466736293234" y="-860.5962015503875" width="28.851060292745704" height="26.20155038759689" as="geometry"/>
                </mxCell>
                <mxCell id="16" value="6" style="rounded=0;whiteSpace=wrap;html=1;fontSize=15;strokeWidth=2;fontStyle=1;fillColor=#D5E8D4;strokeColor=#000000;" parent="1" vertex="1">
                    <mxGeometry x="3969.466736293234" y="-834.3946511627906" width="28.851060292745704" height="26.20155038759689" as="geometry"/>
                </mxCell>
                <mxCell id="17" value="7" style="rounded=0;whiteSpace=wrap;html=1;fontSize=15;strokeWidth=2;fontStyle=1;fillColor=#d5e8d4;strokeColor=#000000;" parent="1" vertex="1">
                    <mxGeometry x="3969.466736293234" y="-808.1931007751938" width="28.851060292745704" height="26.20155038759689" as="geometry"/>
                </mxCell>
                <mxCell id="18" value="8" style="rounded=0;whiteSpace=wrap;html=1;fontSize=15;strokeWidth=2;fontStyle=1;fillColor=#D5E8D4;strokeColor=#000000;" parent="1" vertex="1">
                    <mxGeometry x="3969.466736293234" y="-781.9915503875968" width="28.851060292745704" height="26.20155038759689" as="geometry"/>
                </mxCell>
                <mxCell id="19" style="edgeStyle=orthogonalEdgeStyle;curved=1;orthogonalLoop=1;jettySize=auto;html=1;entryX=0;entryY=0.5;entryDx=0;entryDy=0;fontSize=12;strokeWidth=2;endSize=1;" parent="1" edge="1">
                    <mxGeometry relative="1" as="geometry">
                        <mxPoint x="3947.107164566357" y="-967.1186046511625" as="sourcePoint"/>
                        <mxPoint x="3969.466736293234" y="-950.6116279069768" as="targetPoint"/>
                        <Array as="points">
                            <mxPoint x="3947.107164566357" y="-977.2193023255813"/>
                            <mxPoint x="3947.107164566357" y="-951.0177519379845"/>
                        </Array>
                    </mxGeometry>
                </mxCell>
                <mxCell id="25" value="t=1" style="text;html=1;align=center;verticalAlign=middle;resizable=0;points=[];autosize=1;strokeColor=none;fillColor=none;fontSize=15;fontStyle=1" parent="1" vertex="1">
                    <mxGeometry x="4025.4907892254178" y="-947.9978294573643" width="40" height="20" as="geometry"/>
                </mxCell>
                <mxCell id="26" value="t=2" style="text;html=1;align=center;verticalAlign=middle;resizable=0;points=[];autosize=1;strokeColor=none;fillColor=none;fontSize=15;fontStyle=1" parent="1" vertex="1">
                    <mxGeometry x="3899.412765073186" y="-918.0000775193797" width="40" height="20" as="geometry"/>
                </mxCell>
                <mxCell id="29" value="" style="endArrow=none;dashed=1;html=1;fontSize=15;endSize=1;strokeWidth=2;curved=1;fontStyle=1" parent="1" edge="1">
                    <mxGeometry width="50" height="50" relative="1" as="geometry">
                        <mxPoint x="3983.7624366682903" y="-677.1853488372092" as="sourcePoint"/>
                        <mxPoint x="3983.7624366682903" y="-755.79" as="targetPoint"/>
                    </mxGeometry>
                </mxCell>
                <mxCell id="30" value="t=3" style="text;html=1;align=center;verticalAlign=middle;resizable=0;points=[];autosize=1;strokeColor=none;fillColor=none;fontSize=15;fontStyle=1" parent="1" vertex="1">
                    <mxGeometry x="4025.4907892254178" y="-898.0047286821705" width="40" height="20" as="geometry"/>
                </mxCell>
                <mxCell id="35" value="X-1" style="rounded=0;whiteSpace=wrap;html=1;fontSize=15;strokeWidth=2;fontStyle=1;fillColor=#d5e8d4;strokeColor=#000000;" parent="1" vertex="1">
                    <mxGeometry x="3969.466736293234" y="-678.9015503875969" width="28.851060292745704" height="26.20155038759689" as="geometry"/>
                </mxCell>
                <mxCell id="36" style="edgeStyle=orthogonalEdgeStyle;curved=1;orthogonalLoop=1;jettySize=auto;html=1;fontSize=12;strokeWidth=2;endSize=1;entryX=0;entryY=0.5;entryDx=0;entryDy=0;" parent="1" target="35" edge="1">
                    <mxGeometry relative="1" as="geometry">
                        <mxPoint x="3947.107164566357" y="-692.0023255813953" as="sourcePoint"/>
                        <mxPoint x="3908.518871424809" y="-652.6999999999998" as="targetPoint"/>
                        <Array as="points">
                            <mxPoint x="3947.107164566357" y="-665.8007751937984"/>
                        </Array>
                    </mxGeometry>
                </mxCell>
                <mxCell id="37" value="" style="endArrow=classic;html=1;fontSize=12;endSize=1;strokeWidth=2;curved=1;exitX=1;exitY=0.5;exitDx=0;exitDy=0;entryX=1.114;entryY=-0.002;entryDx=0;entryDy=0;entryPerimeter=0;" parent="1" source="35" target="10" edge="1">
                    <mxGeometry width="50" height="50" relative="1" as="geometry">
                        <mxPoint x="4089.025530146373" y="-731.3046511627906" as="sourcePoint"/>
                        <mxPoint x="4161.153180878237" y="-796.8085271317829" as="targetPoint"/>
                        <Array as="points">
                            <mxPoint x="4074.41" y="-658"/>
                            <mxPoint x="4074.5999999999995" y="-849.2116279069766"/>
                            <mxPoint x="4074.5999999999995" y="-965.8085271317827"/>
                        </Array>
                    </mxGeometry>
                </mxCell>
                <mxCell id="39" value="t=0" style="text;html=1;align=center;verticalAlign=middle;resizable=0;points=[];autosize=1;strokeColor=none;fillColor=none;fontSize=15;fontStyle=1" parent="1" vertex="1">
                    <mxGeometry x="3901.622765073186" y="-979.4131782945735" width="40" height="20" as="geometry"/>
                </mxCell>
                <mxCell id="40" value="t=X-1" style="text;html=1;align=center;verticalAlign=middle;resizable=0;points=[];autosize=1;strokeColor=none;fillColor=none;fontSize=15;fontStyle=1" parent="1" vertex="1">
                    <mxGeometry x="3894.41" y="-706.013100775194" width="50" height="20" as="geometry"/>
                </mxCell>
                <mxCell id="38" value="t=X" style="text;html=1;align=center;verticalAlign=middle;resizable=0;points=[];autosize=1;strokeColor=none;fillColor=none;fontSize=15;fontStyle=1" parent="1" vertex="1">
                    <mxGeometry x="4011.9277519974485" y="-985.4000000000001" width="40" height="20" as="geometry"/>
                </mxCell>
                <mxCell id="42" value="SRAM Contents" style="text;html=1;align=center;verticalAlign=middle;resizable=0;points=[];autosize=1;strokeColor=none;fillColor=none;fontSize=15;fontStyle=1" parent="1" vertex="1">
                    <mxGeometry x="3917.896770721205" y="-1018" width="130" height="20" as="geometry"/>
                </mxCell>
                <mxCell id="44" style="edgeStyle=orthogonalEdgeStyle;curved=1;orthogonalLoop=1;jettySize=auto;html=1;entryX=0;entryY=0.5;entryDx=0;entryDy=0;fontSize=12;strokeWidth=2;endSize=1;exitX=0;exitY=0.5;exitDx=0;exitDy=0;" parent="1" source="12" target="13" edge="1">
                    <mxGeometry relative="1" as="geometry">
                        <mxPoint x="3944.407164566357" y="-911.2086046511625" as="sourcePoint"/>
                        <mxPoint x="3966.7667362932343" y="-894.7016279069768" as="targetPoint"/>
                        <Array as="points">
                            <mxPoint x="3944.41" y="-926"/>
                            <mxPoint x="3944.41" y="-900"/>
                        </Array>
                    </mxGeometry>
                </mxCell>
                <mxCell id="46" style="edgeStyle=orthogonalEdgeStyle;curved=1;orthogonalLoop=1;jettySize=auto;html=1;entryX=1;entryY=0.5;entryDx=0;entryDy=0;fontSize=12;endSize=1;strokeWidth=2;" parent="1" edge="1">
                    <mxGeometry relative="1" as="geometry">
                        <mxPoint x="3997.79779658598" y="-899.9257823715187" as="sourcePoint"/>
                        <mxPoint x="3997.797796585979" y="-873.6800775193798" as="targetPoint"/>
                        <Array as="points">
                            <mxPoint x="4023.8899999999994" y="-899.58"/>
                            <mxPoint x="4023.8899999999994" y="-873.58"/>
                            <mxPoint x="3997.8899999999994" y="-873.58"/>
                        </Array>
                    </mxGeometry>
                </mxCell>
                <mxCell id="47" style="edgeStyle=orthogonalEdgeStyle;curved=1;orthogonalLoop=1;jettySize=auto;html=1;entryX=0;entryY=0.5;entryDx=0;entryDy=0;fontSize=12;strokeWidth=2;endSize=1;exitX=0;exitY=0.5;exitDx=0;exitDy=0;" parent="1" edge="1">
                    <mxGeometry relative="1" as="geometry">
                        <mxPoint x="3968.9467362932337" y="-873.6800775193798" as="sourcePoint"/>
                        <mxPoint x="3968.9467362932337" y="-847.4785271317829" as="targetPoint"/>
                        <Array as="points">
                            <mxPoint x="3943.8899999999994" y="-873.58"/>
                            <mxPoint x="3943.8899999999994" y="-847.58"/>
                        </Array>
                    </mxGeometry>
                </mxCell>
                <mxCell id="48" style="edgeStyle=orthogonalEdgeStyle;curved=1;orthogonalLoop=1;jettySize=auto;html=1;entryX=1;entryY=0.5;entryDx=0;entryDy=0;fontSize=12;endSize=1;strokeWidth=2;" parent="1" edge="1">
                    <mxGeometry relative="1" as="geometry">
                        <mxPoint x="3997.79779658598" y="-847.5157823715186" as="sourcePoint"/>
                        <mxPoint x="3997.797796585979" y="-821.2700775193798" as="targetPoint"/>
                        <Array as="points">
                            <mxPoint x="4023.8899999999994" y="-847.1700000000001"/>
                            <mxPoint x="4023.8899999999994" y="-821.1700000000001"/>
                            <mxPoint x="3997.8899999999994" y="-821.1700000000001"/>
                        </Array>
                    </mxGeometry>
                </mxCell>
                <mxCell id="49" style="edgeStyle=orthogonalEdgeStyle;curved=1;orthogonalLoop=1;jettySize=auto;html=1;entryX=0;entryY=0.5;entryDx=0;entryDy=0;fontSize=12;strokeWidth=2;endSize=1;exitX=0;exitY=0.5;exitDx=0;exitDy=0;" parent="1" edge="1">
                    <mxGeometry relative="1" as="geometry">
                        <mxPoint x="3968.9467362932337" y="-821.2700775193798" as="sourcePoint"/>
                        <mxPoint x="3968.9467362932337" y="-795.068527131783" as="targetPoint"/>
                        <Array as="points">
                            <mxPoint x="3943.8899999999994" y="-821.1700000000001"/>
                            <mxPoint x="3943.8899999999994" y="-795.1700000000001"/>
                        </Array>
                    </mxGeometry>
                </mxCell>
                <mxCell id="50" style="edgeStyle=orthogonalEdgeStyle;curved=1;orthogonalLoop=1;jettySize=auto;html=1;entryX=1;entryY=0.5;entryDx=0;entryDy=0;fontSize=12;endSize=1;strokeWidth=2;" parent="1" edge="1">
                    <mxGeometry relative="1" as="geometry">
                        <mxPoint x="3999.3977965859804" y="-795.1157823715187" as="sourcePoint"/>
                        <mxPoint x="3999.3977965859794" y="-768.8700775193798" as="targetPoint"/>
                        <Array as="points">
                            <mxPoint x="4025.49" y="-794.7700000000001"/>
                            <mxPoint x="4025.49" y="-768.7700000000001"/>
                            <mxPoint x="3999.49" y="-768.7700000000001"/>
                        </Array>
                    </mxGeometry>
                </mxCell>
                <mxCell id="51" style="edgeStyle=orthogonalEdgeStyle;curved=1;orthogonalLoop=1;jettySize=auto;html=1;fontSize=12;strokeWidth=2;endSize=1;exitX=0;exitY=0.5;exitDx=0;exitDy=0;" parent="1" edge="1">
                    <mxGeometry relative="1" as="geometry">
                        <mxPoint x="3970.546736293234" y="-768.8700775193798" as="sourcePoint"/>
                        <mxPoint x="3945.41" y="-743" as="targetPoint"/>
                        <Array as="points">
                            <mxPoint x="3945.49" y="-768.7700000000001"/>
                            <mxPoint x="3945.49" y="-742.7700000000001"/>
                        </Array>
                    </mxGeometry>
                </mxCell>
                <mxCell id="52" value="t=4" style="text;html=1;align=center;verticalAlign=middle;resizable=0;points=[];autosize=1;strokeColor=none;fillColor=none;fontSize=15;fontStyle=1" parent="1" vertex="1">
                    <mxGeometry x="3899.410789225418" y="-868.0047286821705" width="40" height="20" as="geometry"/>
                </mxCell>
                <mxCell id="53" value="t=5" style="text;html=1;align=center;verticalAlign=middle;resizable=0;points=[];autosize=1;strokeColor=none;fillColor=none;fontSize=15;fontStyle=1" parent="1" vertex="1">
                    <mxGeometry x="4025.4907892254178" y="-848.0047286821705" width="40" height="20" as="geometry"/>
                </mxCell>
                <mxCell id="54" value="t=6" style="text;html=1;align=center;verticalAlign=middle;resizable=0;points=[];autosize=1;strokeColor=none;fillColor=none;fontSize=15;fontStyle=1" parent="1" vertex="1">
                    <mxGeometry x="3899.410789225418" y="-818.0047286821705" width="40" height="20" as="geometry"/>
                </mxCell>
                <mxCell id="55" value="t=7" style="text;html=1;align=center;verticalAlign=middle;resizable=0;points=[];autosize=1;strokeColor=none;fillColor=none;fontSize=15;fontStyle=1" parent="1" vertex="1">
                    <mxGeometry x="4025.4907892254178" y="-788.0047286821705" width="40" height="20" as="geometry"/>
                </mxCell>
                <mxCell id="56" value="t=8" style="text;html=1;align=center;verticalAlign=middle;resizable=0;points=[];autosize=1;strokeColor=none;fillColor=none;fontSize=15;fontStyle=1" parent="1" vertex="1">
                    <mxGeometry x="3899.410789225418" y="-769.0047286821705" width="40" height="20" as="geometry"/>
                </mxCell>
            </root>
        </mxGraphModel>
    </diagram>
</mxfile>